<svg xmlns="http://www.w3.org/2000/svg" viewBox="0 0 395.52 59.54456323781546" height="59.54456323781546" width="395.52"><g><svg viewBox="0 0 457.5769403900398 68.88708298751224" height="59.54456323781546" width="395.52"><g transform="matrix(1,0,0,1,62.05694039003979,8.20883855083882)"><svg viewBox="0 0 395.52 52.469405885834604" height="52.469405885834604" width="395.52"><g id="textblocktransform"><svg viewBox="0 0 395.52 52.469405885834604" height="52.469405885834604" width="395.52" id="textblock"><g><svg viewBox="0 0 395.52 52.469405885834604" height="52.469405885834604" width="395.52"><g transform="matrix(1,0,0,1,0,0)"><svg width="395.52" viewBox="0.964166900011 -40.82 314.495833099989 41.72" height="52.469405885834604" data-palette-color="#e8c2d3"><path d="M9.74 0.1L8.35-0.29Q7.62-0.46 6.74-0.74 5.86-1.03 5.62-1.03L5.62-1.03 5.32-1.03Q4.47-1.03 4-0.05L4-0.05Q3.98 0 3.96 0L3.96 0 3.25 0Q3.1 0 3.08-0.12L3.08-0.12 0.98-7.32Q0.85-7.84 1.71-7.84L1.71-7.84Q2.05-7.84 2.17-7.7 2.29-7.57 2.34-7.52 2.39-7.47 2.56-7.18L2.56-7.18Q5.79-3.2 12.01-3.2L12.01-3.2Q15.28-3.2 17.44-4.92 19.6-6.64 19.6-9.99L19.6-9.99Q19.6-12.23 18.88-13.34 18.16-14.45 17.7-15.01L17.7-15.01Q16.72-16.21 13.02-18.31 9.33-20.41 7.03-22.07L7.03-22.07Q1.17-26.29 1.17-30.76 1.17-35.23 3.97-37.67 6.76-40.11 11.38-40.11L11.38-40.11Q13.96-40.11 16.85-38.72L16.85-38.72Q18.21-38.06 18.85-37.84 19.48-37.62 19.73-38.1 19.97-38.57 20.02-38.57L20.02-38.57Q21.12-38.7 21.12-38.23L21.12-38.23 21.85-30.4Q21.85-30.18 20.73-30.18L20.73-30.18Q20.56-30.18 20.43-30.62L20.43-30.62Q19.68-33.11 16.89-34.75 14.11-36.4 11.33-36.4L11.33-36.4Q5.42-36.4 5.42-31.52L5.42-31.52Q5.42-27.98 11.82-24.46L11.82-24.46 16.46-21.97Q20.73-19.6 22.45-16.86 24.17-14.11 24.17-10.99L24.17-10.99 24.17-10.74Q23.56-6.54 22.71-5.03L22.71-5.03Q21.29-2.54 18.68-1.04 16.06 0.46 12.74 0.46L12.74 0.46Q10.91 0.39 9.74 0.1L9.74 0.1ZM27.68-39.99L66.6-39.99Q66.84-39.99 67.01-39.37 67.19-38.75 67.62-37.62L67.62-37.62Q67.62-37.62 68.41-35.64L68.41-35.64Q68.75-34.79 68.75-34.69 68.75-34.59 68.39-34.47 68.04-34.35 67.94-34.35L67.94-34.35Q67.77-34.35 67.51-34.7 67.26-35.06 66.64-35.55 66.01-36.04 63.25-36.04L63.25-36.04 49.51-36.04 49.51-4.27Q49.51-2.49 50.68-1.32L50.68-1.32Q50.78-1.22 51.1-1.07 51.41-0.93 51.41-0.46 51.41 0 51.1 0L51.1 0 43.19 0Q42.87 0 42.87-0.43 42.87-0.85 42.98-0.94 43.09-1.03 43.28-1.11 43.48-1.2 43.78-1.5 44.09-1.81 44.43-2.62 44.77-3.44 44.77-4.27L44.77-4.27 44.77-36.04 31.03-36.04Q27.59-36.04 26.88-34.86L26.88-34.86Q26.54-34.38 26.39-34.36 26.24-34.35 25.89-34.47 25.53-34.59 25.53-34.69 25.53-34.79 25.88-35.64L25.88-35.64 26.66-37.62Q27.1-38.72 27.26-39.29 27.41-39.87 27.68-39.99L27.68-39.99ZM85.59-4.15L85.59-4.15Q87.98-3.2 90.28-3.2L90.28-3.2Q98.09-3.2 102.72-7.78 107.34-12.35 107.34-20.07L107.34-20.07Q107.34-22.73 105.99-25.66 104.63-28.59 102.36-31.02 100.09-33.45 96.81-35.03 93.53-36.62 89.37-36.62 85.22-36.62 81.54-34.52 77.85-32.42 75.85-28.71 73.85-25 73.85-20.1 73.85-15.21 77.42-10.6 81-5.98 85.59-4.15ZM75.36-5.31Q72.63-8.15 71.02-12.07 69.4-15.99 69.4-20.18 69.4-24.37 71.1-28.16 72.8-31.96 75.59-34.73 78.39-37.5 82.18-39.16 85.98-40.82 89.72-40.82 93.45-40.82 96.7-39.84L96.7-39.84Q103.12-37.92 107.4-32.65 111.69-27.39 111.69-20.29L111.69-20.29Q111.69-16.11 110.18-12.3 108.66-8.5 105.94-5.55 103.22-2.61 99.08-0.85 94.94 0.9 90.35 0.9 85.76 0.9 81.93-0.78 78.1-2.47 75.36-5.31ZM128.85-35.99L124.33-35.99Q123.82-35.99 123.45-35.63 123.09-35.28 123.09-34.77L123.09-34.77 123.09-4.27Q123.09-2.49 124.26-1.32L124.26-1.32Q124.36-1.22 124.68-1.07 124.99-0.93 124.99-0.46 124.99 0 124.68 0L124.68 0 116.76 0Q116.45 0 116.45-0.43 116.45-0.85 116.56-0.94 116.67-1.03 116.86-1.11 117.06-1.2 117.36-1.5 117.67-1.81 118.01-2.62 118.35-3.44 118.35-4.27L118.35-4.27 118.35-35.72Q118.35-37.5 117.18-38.67L117.18-38.67Q117.08-38.77 116.76-38.92 116.45-39.06 116.45-39.5 116.45-39.94 116.76-39.94L116.76-39.94 129.29-39.94Q134.66-39.89 138.29-37.63 141.91-35.38 141.91-30.3L141.91-30.3Q141.91-24.32 135.66-21.53L135.66-21.53Q133.37-20.51 132.17-20.4 130.97-20.29 130.97-20.21L130.97-20.21 131.76-19.78Q132.24-19.48 133.76-18.29 135.27-17.09 136.76-15.59 138.25-14.09 140.3-11.43 142.35-8.76 143.33-7.08L143.33-7.08 145.33-3.52Q146.43-1.51 147.16-1.32 147.89-1.12 147.89-0.56 147.89 0 147.58 0L147.58 0 139.67 0Q139.35 0 139.35-0.43 139.35-0.85 139.46-0.94 139.57-1.03 139.76-1.11 139.96-1.2 140.09-1.34 140.23-1.49 140.21-1.92 140.2-2.34 140.1-2.59L140.1-2.59Q138.32-7.18 135.25-11.33L135.25-11.33Q129.53-19.04 125.41-19.63L125.41-19.63Q124.82-19.73 124.82-19.75L124.82-19.75Q124.77-20.19 124.77-20.95L124.77-20.95 124.77-22.44Q124.77-22.68 125.02-22.68L125.02-22.68Q131.02-22.68 134.39-25.1L134.39-25.1Q136.98-26.93 136.98-30.03 136.98-33.13 134.49-34.56 132-35.99 128.85-35.99L128.85-35.99ZM163.39-4.27L163.39-16.87 148.96-36.25Q148.28-37.18 147.45-37.9 146.62-38.62 146.55-38.7 146.47-38.77 146.16-38.92 145.84-39.06 145.84-39.53 145.84-39.99 146.16-39.99L146.16-39.99 154.99-39.99Q155.31-39.99 155.31-39.56 155.31-39.14 155.2-39.05 155.09-38.96 154.9-38.87L154.9-38.87Q153.99-38.48 154.13-37.68 154.26-36.89 155.19-35.64L155.19-35.64 165.96-21.24 166.15-21.24 177.21-35.64Q178.8-37.62 178.74-38.02 178.68-38.43 178.51-38.6 178.33-38.77 178.02-38.92 177.7-39.06 177.7-39.53 177.7-39.99 178.02-39.99L178.02-39.99 185.71-39.99Q186.03-39.99 186.03-39.56 186.03-39.14 185.92-39.05 185.81-38.96 185.61-38.88 185.41-38.79 185.34-38.72 185.27-38.65 184.95-38.43L184.95-38.43 184.29-37.92Q183.32-37.13 182.68-36.25L182.68-36.25 168.42-17.75 168.42-4.27Q168.42-2.49 169.59-1.32L169.59-1.32Q169.69-1.22 170.01-1.07 170.33-0.93 170.33-0.46 170.33 0 170.01 0L170.01 0 161.78 0Q161.46 0 161.46-0.43 161.46-0.85 161.57-0.94 161.68-1.03 161.88-1.11 162.07-1.2 162.39-1.51 162.71-1.83 163.05-2.64 163.39-3.44 163.39-4.27L163.39-4.27ZM199.72-39.99L199.72-39.99 207.63-39.99Q207.94-39.99 207.94-39.56 207.94-39.14 207.83-39.05 207.72-38.96 207.53-38.88 207.33-38.79 207.03-38.49 206.72-38.18 206.38-37.37 206.04-36.55 206.04-35.72L206.04-35.72 206.04-24.61 233.73-24.61 233.73-35.72Q233.73-37.5 232.55-38.67L232.55-38.67Q232.46-38.77 232.14-38.92 231.82-39.06 231.82-39.53 231.82-39.99 232.14-39.99L232.14-39.99 240.05-39.99Q240.37-39.99 240.37-39.56 240.37-39.14 240.26-39.05 240.15-38.96 239.95-38.88 239.76-38.79 239.45-38.49 239.15-38.18 238.8-37.37 238.46-36.55 238.46-35.72L238.46-35.72 238.46-4.27Q238.46-2.49 239.63-1.32L239.63-1.32Q239.73-1.22 240.05-1.07 240.37-0.93 240.37-0.46 240.37 0 240.05 0L240.05 0 232.14 0Q231.82 0 231.82-0.43 231.82-0.85 231.93-0.94 232.04-1.03 232.24-1.11 232.43-1.2 232.74-1.5 233.04-1.81 233.38-2.62 233.73-3.44 233.73-4.27L233.73-4.27 233.73-20.56 206.04-20.56 206.04-4.27Q206.04-2.49 207.21-1.32L207.21-1.32Q207.31-1.22 207.63-1.07 207.94-0.93 207.94-0.46 207.94 0 207.63 0L207.63 0 199.72 0Q199.4 0 199.4-0.43 199.4-0.85 199.51-0.94 199.62-1.03 199.81-1.11 200.01-1.2 200.31-1.5 200.62-1.81 200.96-2.62 201.3-3.44 201.3-4.27L201.3-4.27 201.3-35.72Q201.3-37.5 200.13-38.67L200.13-38.67Q200.03-38.77 199.72-38.92 199.4-39.06 199.4-39.53 199.4-39.99 199.72-39.99ZM248.42-15.48L248.42-35.72Q248.42-37.45 247.2-38.67L247.2-38.67Q247.1-38.77 246.78-38.92 246.47-39.06 246.47-39.53 246.47-39.99 246.78-39.99L246.78-39.99 254.99-39.99Q255.3-39.99 255.3-39.56 255.3-39.14 255.19-39.05 255.09-38.96 254.89-38.88 254.69-38.79 254.39-38.49 254.08-38.18 253.74-37.37 253.4-36.55 253.4-35.72L253.4-35.72 253.4-15.48Q253.4-9.84 256.88-6.73 260.36-3.61 265.39-3.61L265.39-3.61Q268.34-3.61 270.94-5.11 273.54-6.62 275.07-9.09 276.59-11.57 276.59-14.36L276.59-14.36 276.59-35.72Q276.59-37.5 275.42-38.67L275.42-38.67Q275.32-38.77 275.01-38.92 274.69-39.06 274.69-39.53 274.69-39.99 275.01-39.99L275.01-39.99 282.62-39.99Q282.94-39.99 282.94-39.56 282.94-39.14 282.83-39.05 282.72-38.96 282.53-38.88 282.33-38.79 282.03-38.49 281.72-38.18 281.38-37.37 281.04-36.55 281.04-35.72L281.04-35.72 281.04-14.36Q281.04-10.16 278.88-6.64 276.72-3.13 273.09-1.12 269.46 0.88 265.06 0.88 260.65 0.88 256.83-1.17 253.01-3.22 250.71-6.99 248.42-10.77 248.42-15.48L248.42-15.48ZM296.9-3.98L303.3-3.98Q305.11-3.98 306.57-4.82 308.04-5.66 308.82-6.49L308.82-6.49Q310.62-8.42 310.62-11.13L310.62-11.13Q310.62-15.38 307.84-17.61 305.06-19.85 300.35-19.85L300.35-19.85 297.07-19.85Q296.76-19.85 296.76-20.53L296.76-20.53 296.76-23.29Q296.76-23.97 297.07-23.97L297.07-23.97 300.35-23.97Q304.18-23.97 305.96-26 307.74-28.03 307.74-30.37L307.74-30.37Q307.74-31.84 307.22-32.95 306.69-34.06 305.53-34.92 304.37-35.79 303.15-35.96L303.15-35.96 302.62-36.04 296.9-36.04Q296.34-36.04 295.93-35.68 295.51-35.33 295.51-34.79L295.51-34.79 295.51-5.22Q295.51-4.69 295.93-4.33 296.34-3.98 296.9-3.98L296.9-3.98ZM302.4 0L302.4 0 289.19 0Q288.87 0 288.87-0.43 288.87-0.85 288.98-0.94 289.09-1.03 289.29-1.11 289.48-1.2 289.79-1.5 290.09-1.81 290.43-2.62 290.78-3.44 290.78-4.27L290.78-4.27 290.78-35.72Q290.78-37.5 289.6-38.67L289.6-38.67Q289.51-38.77 289.19-38.92 288.87-39.06 288.87-39.53 288.87-39.99 289.19-39.99L289.19-39.99 302.27-39.99Q304.35-39.99 306.25-39.18 308.16-38.38 309.48-37.06L309.48-37.06Q312.38-34.16 312.38-30.81L312.38-30.81Q312.38-28.27 311.11-26.48 309.84-24.68 306.94-22.53L306.94-22.53 306.94-22.02Q315.46-18.53 315.46-11.18L315.46-11.18Q315.46-7.28 311.97-3.76L311.97-3.76Q310.33-2.1 307.82-1.05 305.3 0 302.4 0Z" opacity="1" transform="matrix(1,0,0,1,0,0)" fill="#e8c2d3" class="wordmark-text-0" data-fill-palette-color="primary" id="text-0"/></svg></g></svg></g></svg></g></svg></g><g><svg viewBox="0 0 49.6701729261355 68.88708298751224" height="68.88708298751224" width="49.6701729261355"><g><svg xmlns="http://www.w3.org/2000/svg" xmlns:xlink="http://www.w3.org/1999/xlink" version="1.1" x="0" y="0" viewBox="17.553310653591126 5 64.89337869281775 90" enable-background="new 0 0 100 100" xml:space="preserve" height="68.88708298751224" width="49.6701729261355" class="icon-icon-0" data-fill-palette-color="accent" id="icon-0"><path d="M50 5C45.6 5 41.3 6.2 37.3 8.6 21.1 18.1 13.3 44.3 19.9 67 24.9 84 36.7 95 50 95 54.4 95 58.7 93.8 62.7 91.4 78.9 81.9 86.7 55.7 80.1 33 75.1 16 63.3 5 50 5M75.8 63.7L64.3 57 77.4 52.3C77.3 56.2 76.8 60 75.8 63.7M24.2 36.3L35.7 43 22.6 47.7C22.7 43.8 23.2 40 24.2 36.3M52.5 50L61.6 44.7 76.3 50 61.5 55.3zM38.5 55.3L23.7 50 38.5 44.7 47.6 50zM75.1 33.8L64 40.3 70.9 24C72.6 26.9 74 30.2 75.1 33.8M60.4 42.4L52.1 47.3 55.8 34.5 68 24.2zM50 45.5L46.6 33.7 50 14.6 53.4 33.8zM51.7 10.1C54.4 10.4 57.1 11.2 59.6 12.6L55 28.4zM45 28.4L40.4 12.6C43 11.2 45.6 10.4 48.3 10.1zM47.9 47.3L39.6 42.4 32 24.2 44.2 34.5zM29.1 24L36 40.3 24.9 33.8C25.9 30.3 27.4 27 29.1 24M22.5 52.2L35.7 57 24.2 63.7C23.2 59.9 22.7 56.1 22.5 52.2M36 59.7L29.1 76C27.4 73.1 26 69.8 24.9 66.2zM39.6 57.6L47.9 52.7 44.2 65.5 31.9 75.8zM50 54.5L53.4 66.3 50 85.4 46.6 66.2zM48.3 89.9C45.6 89.6 42.9 88.8 40.4 87.4L45 71.6zM55 71.6L59.6 87.4C57 88.8 54.4 89.6 51.7 89.9zM52.1 52.7L60.4 57.6 68 75.8 55.8 65.5zM70.9 76L64 59.7 75.1 66.2C74.1 69.7 72.6 73 70.9 76M64.3 43L75.8 36.3C76.8 40.1 77.3 43.9 77.4 47.8zM68.6 20.5L57.1 30.2 61.9 13.9C64.3 15.6 66.6 17.9 68.6 20.5M38.2 13.9L43 30.2 31.5 20.5C33.4 17.9 35.6 15.7 38.2 13.9M31.4 79.5L42.9 69.8 38.1 86.1C35.7 84.4 33.4 82.1 31.4 79.5M61.8 86.1L57 69.8 68.5 79.5C66.6 82.1 64.4 84.3 61.8 86.1" fill="#e8c2d3" data-fill-palette-color="accent"/></svg></g></svg></g></svg></g><defs/></svg>